<svg id="_0507_analyst" xmlns="http://www.w3.org/2000/svg" viewBox="0 0 500 500" data-imageid="analyst-63" imageName="Analyst" class="illustrations_image" style="width: 166px;"><defs><style>.cls-1_analyst-63{fill:#fff;}.cls-2_analyst-63{fill:#f4a28c;}.cls-3_analyst-63{opacity:.46;}.cls-3_analyst-63,.cls-4_analyst-63,.cls-5_analyst-63,.cls-6_analyst-63,.cls-7_analyst-63,.cls-8_analyst-63{fill:none;}.cls-9_analyst-63{fill:#a5a5a5;}.cls-4_analyst-63{opacity:.58;}.cls-10_analyst-63{fill:#ce8172;}.cls-5_analyst-63{opacity:.03;}.cls-6_analyst-63{opacity:.73;}.cls-7_analyst-63{opacity:.08;}.cls-8_analyst-63{opacity:.31;}.cls-11_analyst-63{fill:#24285b;}.cls-12_analyst-63{fill:#000001;}.cls-13_analyst-63{fill:#ffd200;}.cls-14_analyst-63{fill:#68e1fd;}</style></defs><g id="bg_analyst-63" class="cls-5_analyst-63"><ellipse class="cls-12_analyst-63" cx="250" cy="433.28" rx="236.24" ry="26.25"/></g><g id="person_analyst-63"><path class="cls-2_analyst-63" d="m160.15,177.14c1.01.71,24.73,37.27,51.49,31.61,26.75-5.66,40.38-58.16,40.38-58.16l-91.87,26.55Z"/><path class="cls-11_analyst-63" d="m129.68,45.93s-11.74-9.94-20.96-3c-9.23,6.94-2.97,34.98-23.07,28.54,0,0,21.83,18.11,37.11-11.47l6.92-14.07Z"/><path class="cls-14_analyst-63 targetColor" d="m120.31,65.17s-7.98-1.13-4.68-12.01c3.3-10.87,12.31-10.47,14.89-7.62l-10.21,19.63Z" style="fill: rgb(253, 238, 104);"/><path class="cls-2_analyst-63" d="m144.15,59.27s-.98,9.46-3.73,15.35c-1.12,2.39-4.01,3.43-6.38,2.28-2.95-1.43-6.51-4.22-6.6-9.35l-1.22-8.7s-.58-5.48,5.42-8.25c5.99-2.78,13.41,2.93,12.52,8.67Z"/><polygon class="cls-2_analyst-63" points="124.25 63.7 118.06 94.25 135.14 96.46 132.85 73.92 124.25 63.7"/><path class="cls-2_analyst-63" d="m143.23,65.2l1.91,4.1c.47,1.01-.27,2.17-1.39,2.17h-3.7s3.18-6.27,3.18-6.27Z"/><g class="cls-8_analyst-63"><path class="cls-10_analyst-63" d="m132.91,74.56s-3.53-1.08-5.22-3.38c0,0-1.97,6.54,5.88,9.84l-.66-6.45Z"/></g><path class="cls-2_analyst-63" d="m124.89,63.85s.62-3.61-2.13-3.85c-2.76-.24-3.68,4.97-.11,6.16l2.24-2.31Z"/><path class="cls-11_analyst-63" d="m142.28,58.47c-2.31.19-5.27-.07-9.07-1.06,0,0-3.12,10.28-11.75,11.97,0,0-6.11-16.57,4.26-21.54,8.69-4.16,15.23-7.99,21.23-1.18,3.83,4.35,1.11,11.33-4.67,11.81Z"/><path class="cls-2_analyst-63" d="m132.74,62.95s.06-4.25-3.37-3.98c-3.43.27-3.94,5.2.06,7.61l3.32-3.64Z"/><path class="cls-14_analyst-63 targetColor" d="m118.06,94.25l17.08,2.21s92.43,44.36,39.53,106.84c-4.43,5.24-7.38,11.56-8.23,18.37l-4.8,38.38h-69.42S-8.04,116.66,118.06,94.25Z" style="fill: rgb(253, 238, 104);"/><path class="cls-13_analyst-63" d="m238.72,59.99l50,125.32-132.9,23.44s-23.03-107.45,82.89-148.76Z"/><polygon class="cls-2_analyst-63" points="167.02 313.55 169.11 427.25 161.76 429.4 138.31 321.95 167.02 313.55"/><g class="cls-7_analyst-63"><path class="cls-12_analyst-63" d="m118.56,129.76s19.42,29.43-7.19,57.29c-26.61,27.86-11.18,52.16,19.14,33.07,30.32-19.09,35.24,5.79,35.24,5.79l-1.81,15.62-47.21-.53-52.31.2-18.41-43.64,72.55-67.8Z"/></g><path class="cls-14_analyst-63 targetColor" d="m168.93,425.59s4.47,5.26,9.92,4.79c5.45-.47,6.53,7.23-2.28,6.75-3.36-.18-6.08-.62-8.15-1.09-2.47-.56-4.98-.21-7.4.53-.75.23-1.63.09-2.54-.91-2.6-2.84,3.28-9.81,3.28-9.81l7.17-.26Z" style="fill: rgb(253, 238, 104);"/><polygon class="cls-2_analyst-63" points="72.22 313.31 64.43 426.77 71.66 429.28 100.47 323.13 72.22 313.31"/><path class="cls-14_analyst-63 targetColor" d="m64.69,425.11s-4.73,5.03-10.15,4.29c-5.42-.74-6.89,6.89,1.94,6.86,3.37-.01,6.1-.32,8.19-.69,2.49-.44,4.99.04,7.36.9.74.27,1.62.17,2.58-.78,2.74-2.7-2.78-9.96-2.78-9.96l-7.15-.62Z" style="fill: rgb(253, 238, 104);"/><polygon class="cls-11_analyst-63" points="163.95 241.53 183.31 358.39 132.74 358.39 111.38 358.39 50.17 359.72 76.87 241.53 163.95 241.53"/><path class="cls-2_analyst-63" d="m118.56,129.76c1.08-20.49-22.73-32.68-39.35-20.66-22.46,16.25-54.33,43.91-45.63,115.73,10.55,87.11,119.77-3.18,119.77-3.18l-4.51-11.49s-60.03,37.53-76.14,14c-4.97-7.25,1.83-18.2,6.94-26.9,9.23-15.7,37.61-42.48,38.93-67.51Z"/><path class="cls-2_analyst-63" d="m148.84,210.17s4.49-11.74,12.01-9.14,2.08,18.22-7.49,19.09l-4.51-9.95Z"/><path class="cls-14_analyst-63 targetColor" d="m111.38,95.6s-2.37-7.37,11.25-8.91,24.51,4.25,20.03,13.89c0,0-10.27,8.18-31.29-4.97Z" style="fill: rgb(253, 238, 104);"/><g class="cls-3_analyst-63"><path class="cls-1_analyst-63" d="m111.38,95.6s-2.37-7.37,11.25-8.91,24.51,4.25,20.03,13.89c0,0-10.27,8.18-31.29-4.97Z"/></g><rect class="cls-11_analyst-63" x="145.19" y="209.43" width="9.05" height="17.2" transform="translate(-103.8 142.67) rotate(-38.97)"/><path class="cls-2_analyst-63" d="m274.56,127.18c-.5-1.99-1.52-3.96-3.27-5.06-2.34-1.47-7.69-1.72-10.35-1-3.28.89-3.7,3.4-3.66,6.72.04,3.11.22,7.06,2.66,9.35,2.48,2.32,5.91,3.35,9.08,1.81,4.56-2.22,6.76-6.97,5.54-11.82Z"/></g><g id="stats_analyst-63"><path class="cls-14_analyst-63 targetColor" d="m440.91,232.22c0,38.07-19.36,71.63-48.79,91.31,0,0-.05.05-.16.11-17.42,11.64-38.36,18.41-60.89,18.41-1.9,0-3.78-.05-5.65-.14-.56-.03-1.14-.06-1.71-.11-24.59-1.61-46.98-11.33-64.5-26.51-.03-.03-.1-.08-.21-.16-21.54-18.72-35.7-45.7-37.57-76-.16-2.29-.23-4.59-.23-6.91,0-7.58.77-14.99,2.24-22.13l.05-.24,107.57,22.37v-109.84c60.67,0,109.84,49.17,109.84,109.84Z" style="fill: rgb(253, 238, 104);"/><path class="cls-11_analyst-63" d="m392.12,323.53s-.05.05-.16.11c-2.29,1.69-28.92,20.59-66.54,18.27-.56-.03-1.14-.06-1.71-.11-15.98-1.24-33.85-6.36-52.65-18.22-3.91-2.45-7.84-5.2-11.81-8.27,0,0-.02,0-.03-.02-.03-.03-.1-.08-.21-.16-3.11-2.37-35.11-27.8-37.57-76-.47-8.9.1-18.57,2.01-29.04l.05-.24,107.57,22.37,61.05,91.31Z"/><rect class="cls-13_analyst-63" x="373.69" y="162.18" width="96.4" height="61.43"/><rect class="cls-11_analyst-63" x="392.71" y="198.11" width="13.08" height="13.08"/><rect class="cls-11_analyst-63" x="414.75" y="184.06" width="13.08" height="27.12"/><rect class="cls-11_analyst-63" x="437.99" y="174.62" width="13.08" height="36.57"/><path class="cls-9_analyst-63" d="m320.44,302.2c9.9-9.9,9.9-25.95,0-35.85-9.91-9.91-25.97-9.91-35.87-.02-8.87,8.87-9.78,22.66-2.77,32.56l-3.76,3.76-1.34-1.34-33.64,33.64,8.75,8.75,33.64-33.64-1.34-1.34,3.76-3.76c9.89,7.01,23.69,6.11,32.56-2.77Zm-29.08-29.08c6.16-6.16,16.15-6.16,22.31,0,6.16,6.16,6.16,16.15,0,22.31-6.16,6.16-16.15,6.16-22.31,0-6.16-6.16-6.16-16.15,0-22.31Z"/></g><g id="plant_analyst-63"><g class="cls-4_analyst-63"><path class="cls-14_analyst-63 targetColor" d="m410.41,410.11s-17.05-4.66-20.75-20.52c0,0,26.41-5.34,27.16,21.92l-6.41-1.4Z" style="fill: rgb(253, 238, 104);"/></g><g class="cls-6_analyst-63"><path class="cls-14_analyst-63 targetColor" d="m412.5,408.42s-11.91-18.83-1.43-36.43c0,0,20.08,12.75,11.16,36.47l-9.73-.04Z" style="fill: rgb(253, 238, 104);"/></g><path class="cls-14_analyst-63 targetColor" d="m415.57,408.43s6.29-19.88,25.31-23.65c0,0,3.57,12.91-12.32,23.7l-13-.05Z" style="fill: rgb(253, 238, 104);"/><polygon class="cls-11_analyst-63" points="403.21 407.99 406.66 431.63 428.42 431.72 431.63 408.1 403.21 407.99"/></g></svg>